PathFileType	4	(X/Y/Z)	C:/Users/beibeiliu/ov580/test_trc/User1\sequence.28_training_dense_left.trc
DataRate	CameraRate	NumFrames	NumMarkers	Units	OrigDataRate	OrigDataStartFrame	OrigNumFrames
120	120	15	19	mm	120	61	243
Frame#	Time	ThumbCMC			ThumbMCP			ThumbIP			ThumbTip			IndexMCP			IndexPIP			IndexTip			MiddleMCP			MiddlePIP			MiddleTip			RingMCP			RingPIP			RingTip			PinkyMCP			PinkyPIP			PinkyTip			BackHand1			BackHand2			BackHand3	
		X0	Y0	Z0	X1	Y1	Z1	X2	Y2	Z2	X3	Y3	Z3	X4	Y4	Z4	X5	Y5	Z5	X6	Y6	Z6	X7	Y7	Z7	X8	Y8	Z8	X9	Y9	Z9	X10	Y10	Z10	X11	Y11	Z11	X12	Y12	Z12	X13	Y13	Z13	X14	Y14	Z14	X15	Y15	Z15	X16	Y16	Z16	X17	Y17	Z17	X18	Y18	Z18	
60	0.5	-154.192	21.3585	25.6099	-126.949	13.9754	-3.92739	-113.255	1.07326	-32.023	-103.762	-16.4226	-44.6697	-183.063	-11.473	-45.77	-176.567	-19.3282	-73.9025	-162.293	-28.0168	-100.251	-191.138	-38.3712	-45.7277	-190.376	-47.8214	-71.8108	-186.322	-55.6185	-105.988	-173.396	-60.4729	-37.1129	-164.68	-69.0472	-66.5314	-150.631	-68.6481	-88.0416	-151.408	-67.9843	-19.3137	-138.324	-72.2595	-40.9489	-126.229	-68.3367	-63.5912	-178.73	-46.1669	17.6049	-178.309	-38.3811	54.6523	-186.362	-12.9491	27.4923	
61	0.508333	-157.077	20.4248	22.4455	-127.888	14.74	-6.63619	-114.674	2.00266	-30.4206	-102.245	-17.9074	-47.9828	-184.275	-18.0517	-45.9697	-177.501	-25.4799	-74.8835	-165.748	-29.2872	-99.2881	-190.708	-44.2387	-46.5613	-190.088	-54.7061	-74.8541	-185.594	-62.4195	-104.292	-170.558	-65.3085	-34.1938	-164.23	-70.9777	-65.4773	-146.517	-75.0753	-87.9493	-148.616	-72.7467	-19.76	-136.957	-71.7142	-42.0621	-124.35	-63.568	-62.4573	-177.15	-49.7065	18.1827	-177.692	-40.4696	51.6167	-191.146	-9.93538	28.0092	
62	0.516667	-159.146	18.5779	23.2022	-130.891	10.873	-9.695	-118.666	-1.52019	-28.7243	-106.636	-22.5136	-46.8483	-185.935	-21.5422	-49.1208	-179.815	-28.3985	-73.6105	-163.948	-37.0316	-99.0216	-190.513	-47.8338	-43.39	-191.195	-57.1916	-74.9675	-184.366	-69.9061	-100.654	-169.632	-67.8086	-35.1566	-163.893	-72.8986	-63.3005	-144.378	-76.3524	-87.4417	-149.122	-72.1273	-17.3132	-136.325	-72.3449	-40.1964	-121.593	-63.9645	-62.9368	-179.063	-48.265	24.1202	-178.468	-39.0159	53.2749	-190.79	-13.9704	27.4822	
63	0.525	-161.984	15.2298	21.8935	-134.255	10.1141	-9.43727	-122.46	-5.09429	-30.6442	-109.685	-26.5261	-45.0098	-187.171	-25.6935	-47.5832	-179.303	-34.5888	-75.3066	-165.497	-40.9652	-98.7884	-190.354	-54.7401	-42.9511	-190.788	-62.8135	-69.9911	-183.717	-72.2236	-100.712	-169.309	-69.1311	-30.732	-160.692	-76.7205	-62.4574	-142.974	-80.3532	-83.045	-150.09	-71.414	-14.0183	-135.029	-73.504	-37.5876	-120.937	-58.5286	-59.5499	-178.415	-49.6576	23.5863	-178.071	-45.0331	57.9496	-194.017	-17.1134	26.0391	
64	0.533333	-167.043	9.98313	21.0438	-137.581	9.56845	-8.62293	-124.845	-9.23596	-35.6148	-112.375	-29.3821	-42.8977	-188.569	-33.7846	-48.0983	-180.418	-41.5567	-75.1632	-168.347	-45.2248	-95.0228	-192.174	-58.7858	-40.7465	-189.376	-71.5932	-70.2158	-180.731	-81.644	-98.552	-167.311	-76.8776	-30.4021	-158.81	-83.0404	-58.3081	-141.258	-82.4802	-81.9399	-147.406	-72.5252	-14.0847	-132.78	-72.6763	-37.0334	-115.975	-61.9334	-55.3943	-177.342	-55.3722	25.7828	-176.846	-45.0728	57.4005	-193.188	-20.5957	27.6058	
65	0.541667	-169.464	8.74402	20.6001	-141.8	3.52933	-13.4159	-127.408	-9.94399	-30.4068	-114.134	-31.5466	-43.768	-191.887	-35.7963	-43.0891	-180.897	-46.5551	-71.9226	-167.449	-52.9338	-95.9582	-191.991	-63.1957	-39.5797	-187.231	-77.712	-67.0306	-178.447	-87.6036	-92.1673	-168.228	-76.0902	-30.7671	-157.023	-85.4293	-58.4888	-139.315	-87.137	-78.9532	-145.161	-74.1652	-15.4888	-129.083	-74.332	-34.5843	-117.565	-55.2168	-54.2433	-176.077	-56.3481	28.8111	-177.805	-50.463	57.6333	-194.973	-26.5247	30.8749	
66	0.55	-171.151	8.68098	19.8264	-143.054	5.63302	-12.2669	-129.284	-13.3598	-33.0028	-113.759	-33.6266	-45.7658	-193.791	-37.8744	-42.121	-184.287	-48.1747	-69.7282	-169.584	-54.149	-93.6846	-191.096	-68.5879	-37.6488	-190.554	-76.8129	-63.0611	-177.065	-89.338	-94.0664	-166.669	-79.4604	-28.728	-155.577	-90.021	-54.9953	-141.429	-87.5392	-75.9242	-145.188	-77.6622	-9.59087	-131.064	-73.0801	-32.8612	-113.257	-58.9828	-50.4752	-177.883	-57.7456	30.0583	-176.198	-49.5505	58.3436	-196.944	-27.3868	32.1001	
67	0.558333	-173.438	8.44159	19.339	-144.243	3.93687	-11.4733	-130.334	-13.8833	-35.0273	-117.161	-37.7141	-42.9047	-192.413	-42.4026	-40.9188	-184.87	-49.8023	-67.5238	-172.042	-56.1689	-91.208	-189.346	-69.8357	-34.9609	-187.411	-82.0289	-63.8076	-176.42	-92.1819	-90.1814	-166.071	-80.5223	-26.8687	-153.837	-88.8999	-56.4001	-138.831	-87.1772	-77.5524	-142.41	-79.1916	-12.4164	-127.364	-74.2428	-33.9558	-113.194	-53.0692	-49.5016	-177.742	-60.4332	30.9924	-176.336	-48.7056	57.9834	-196.631	-28.5509	31.9295	
68	0.566667	-172.903	7.86258	20.8394	-144.355	3.27295	-12.1156	-132.683	-14.9163	-30.4951	-116.355	-36.4388	-44.0291	-193.106	-44.3993	-43.1645	-183.942	-54.658	-70.5957	-168.952	-61.639	-89.3368	-189.948	-72.7699	-33.6193	-186.415	-84.4942	-59.7182	-177.654	-92.1035	-89.3021	-166.848	-80.3574	-24.8129	-154.318	-89.857	-53.4066	-137.494	-90.9956	-73.0912	-141.693	-82.265	-8.92253	-129.31	-75.1336	-33.222	-117.105	-54.6868	-48.4801	-176.837	-61.7403	28.4769	-176.098	-52.0684	61.4905	-194.721	-31.1056	31.9098	
69	0.575	-172.583	3.97007	23.2502	-146.164	-1.48901	-12.3998	-133.218	-17.5373	-33.3665	-116.92	-36.6094	-44.4142	-195.515	-44.7091	-43.7664	-183.745	-56.6407	-69.5782	-168.505	-63.3252	-89.4016	-189.125	-76.2467	-35.1966	-186.369	-87.7323	-58.9203	-176.206	-96.2619	-90.6276	-163.608	-84.4347	-24.0059	-153.926	-93.0285	-50.3526	-138.968	-89.5214	-73.9954	-142.248	-83.3892	-9.47325	-130.687	-76.3678	-32.5712	-116.57	-59.8601	-48.3024	-175.916	-63.1947	33.7179	-173.927	-50.6743	65.3349	-194.846	-31.704	33.4972	
70	0.583333	-174.395	5.55267	20.8104	-147.976	-2.82668	-9.87492	-133.461	-18.8926	-33.0775	-118.641	-38.9875	-44.6889	-196.216	-47.5794	-42.8589	-188.737	-56.3267	-65.5308	-167.987	-66.2315	-90.5924	-190.421	-73.6587	-33.5064	-185.954	-88.7497	-58.828	-178.123	-95.2486	-89.1502	-163.919	-85.5996	-22.7231	-153.349	-91.5433	-55.2097	-135.248	-90.0108	-77.8357	-140.951	-83.6234	-10.2397	-128.182	-80.238	-30.5834	-116.92	-56.0051	-49.82	-174.491	-65.5251	31.6432	-175.732	-47.4128	62.3397	-195.18	-32.0124	34.0133	
71	0.591667	-175.942	2.81003	18.3899	-147.351	0.615875	-10.6344	-134.934	-20.4179	-30.9181	-117.678	-38.9627	-44.7785	-192.384	-51.9152	-40.2722	-184.632	-60.1442	-67.2193	-168.086	-67.2308	-90.1856	-190.392	-75.9327	-31.3392	-187.796	-87.7256	-59.7095	-176.416	-98.4124	-91.1237	-164.086	-84.6977	-25.9611	-154.403	-92.414	-49.8885	-134.753	-90.5112	-77.0097	-141.932	-81.6321	-5.37115	-129.679	-76.757	-31.3778	-117.871	-57.524	-52.4807	-174.216	-65.4003	30.2944	-175.348	-50.6609	62.3609	-197.883	-31.5997	31.8095	
72	0.6	-175.039	6.32348	21.9478	-147.693	-0.549769	-10.8406	-134.366	-17.7996	-33.8406	-120.336	-40.0956	-42.8008	-193.641	-51.7337	-40.295	-185.318	-61.731	-64.2537	-172.142	-66.5755	-87.1862	-188.648	-78.905	-32.4952	-184.346	-92.0977	-60.3194	-175.17	-100.322	-87.268	-163.113	-85.6634	-24.1626	-153.707	-92.6755	-53.2641	-137.335	-89.5109	-77.5188	-144.119	-78.6639	-7.1333	-129.892	-77.7725	-30.5954	-115.719	-62.126	-52.4988	-173.993	-65.434	34.1156	-175.941	-48.3837	65.2094	-195.716	-32.772	35.066	
73	0.608333	-175.098	4.99369	23.1571	-149.663	-4.45675	-10.9337	-134.821	-22.4557	-33.6853	-118.058	-37.5963	-44.3494	-195.278	-49.2185	-38.9974	-188.259	-59.5337	-66.336	-170.085	-68.8576	-88.7212	-190.09	-75.3294	-31.6986	-186.032	-90.0645	-56.5787	-174.799	-101.672	-88.8085	-165.452	-83.6906	-22.6547	-153.476	-91.3772	-54.1607	-135.464	-90.0844	-76.7364	-142.523	-79.7968	-10.5996	-127.725	-78.2691	-31.3347	-117.801	-57.1381	-51.5885	-175.423	-62.9523	30.2982	-172.807	-53.1422	62.1351	-195.326	-33.8756	33.306	
74	0.616667	-175.182	1.93724	22.951	-148.721	-1.41963	-12.7868	-134.783	-22.7237	-33.8442	-118.231	-36.987	-45.9164	-194.647	-50.6172	-38.8087	-186.945	-61.9272	-64.3459	-173.911	-66.9386	-88.9831	-190.678	-77.7076	-32.7808	-186.035	-90.8167	-57.616	-178.767	-99.1313	-86.3789	-166.048	-82.7746	-21.9721	-152.044	-94.3835	-53.3885	-137.881	-90.5723	-71.5776	-141.164	-81.4583	-7.94866	-131.571	-77.239	-28.8464	-119.108	-58.6072	-49.9397	-170.817	-63.7203	34.6486	-176.312	-49.1422	63.7434	-196.024	-32.5422	34.3157	
